<svg width="43" height="39" viewBox="0 0 43 39" fill="none" xmlns="http://www.w3.org/2000/svg">
<path d="M37.7407 19.3704C37.7407 9.22469 29.516 1 19.3704 1C9.22469 1 1 9.22469 1 19.3704C1 29.516 9.22469 37.7407 19.3704 37.7407" stroke="white" stroke-width="2" stroke-linecap="round"/>
<path d="M41.6772 16.0901L37.5417 20.2255L33.4063 16.0901" stroke="white" stroke-width="2" stroke-linecap="round" stroke-linejoin="round"/>
<path d="M15.9909 15.99V16.4309C15.9909 16.9242 15.7599 17.1342 15.256 17.1342H14.2798V18.1839H15.9909L15.9909 23.3066H17.2505V15.99H15.9909Z" fill="#E9E9E9"/>
<path d="M22.656 23.4116C24.619 23.4116 25.1124 21.4696 25.1124 19.6641C25.1124 17.8375 24.598 15.8745 22.5825 15.8745C20.3676 15.8745 20.1157 18.0895 20.1157 19.6536C20.1157 21.1967 20.3886 23.4116 22.656 23.4116ZM22.6245 22.2044C21.4383 22.2044 21.4068 20.8503 21.4068 19.6536C21.4068 18.4149 21.4383 17.0817 22.5825 17.0817C23.7267 17.0817 23.7582 18.4044 23.7582 19.6431C23.7582 20.8188 23.7372 22.2044 22.6245 22.2044Z" fill="#E9E9E9"/>
</svg>
