<svg width="15" height="15" viewBox="0 0 15 15" fill="none" xmlns="http://www.w3.org/2000/svg">
<path fill-rule="evenodd" clip-rule="evenodd" d="M1.7072 0.293196C1.31668 -0.0973286 0.68351 -0.0973283 0.292986 0.293196C-0.0975385 0.68372 -0.0975383 1.31688 0.292986 1.70741L6.04645 7.46087L0.628859 12.8785C0.238334 13.269 0.238334 13.9022 0.628859 14.2927C1.01938 14.6832 1.65255 14.6832 2.04307 14.2927L7.46066 8.87509L12.8785 14.293C13.2691 14.6835 13.9022 14.6835 14.2928 14.293C14.6833 13.9024 14.6833 13.2693 14.2928 12.8788L8.87488 7.46087L14.6286 1.70712C15.0192 1.3166 15.0192 0.683434 14.6286 0.292909C14.2381 -0.0976156 13.6049 -0.0976149 13.2144 0.292909L7.46066 6.04666L1.7072 0.293196Z" fill="white"/>
</svg>
