<svg width="43" height="39" viewBox="0 0 43 39" fill="none" xmlns="http://www.w3.org/2000/svg">
<path d="M4.93651 19.3704C4.93651 9.22469 13.1612 1 23.3069 1C33.4526 1 41.6772 9.22469 41.6772 19.3704C41.6772 29.516 33.4526 37.7407 23.3069 37.7407" stroke="white" stroke-width="2" stroke-linecap="round"/>
<path d="M1.00003 16.0901L5.1355 20.2255L9.27097 16.0901" stroke="white" stroke-width="2" stroke-linecap="round" stroke-linejoin="round"/>
<path d="M19.2714 15.99V16.4309C19.2714 16.9242 19.0404 17.1342 18.5366 17.1342H17.5603V18.1839H19.2714V23.3066H20.5311V15.99H19.2714Z" fill="#E9E9E9"/>
<path d="M25.9365 23.4116C27.8995 23.4116 28.3929 21.4696 28.3929 19.6641C28.3929 17.8375 27.8785 15.8745 25.8631 15.8745C23.6481 15.8745 23.3962 18.0895 23.3962 19.6536C23.3962 21.1967 23.6691 23.4116 25.9365 23.4116ZM25.905 22.2044C24.7188 22.2044 24.6873 20.8503 24.6873 19.6536C24.6873 18.4149 24.7188 17.0817 25.8631 17.0817C27.0073 17.0817 27.0388 18.4044 27.0388 19.6431C27.0388 20.8188 27.0178 22.2044 25.905 22.2044Z" fill="#E9E9E9"/>
</svg>
