<svg width="17" height="15" viewBox="0 0 17 15" fill="none" xmlns="http://www.w3.org/2000/svg">
<path d="M12.1044 0C13.366 0.014209 14.5668 0.54828 15.4271 1.47787C16.2875 2.40746 16.7322 3.65142 16.6588 4.88248L16.6577 10.08C16.7322 11.3486 16.2875 12.5925 15.4271 13.5221C14.5668 14.4517 13.366 14.9858 12.0974 15H4.54682C1.90554 15 0 12.8654 0 10.1175V4.88248C0 2.13459 1.90554 0 4.54682 0H12.1044ZM12.0903 1.27365H4.54682C2.63566 1.27365 1.26453 2.80963 1.26453 4.88248V10.1175C1.26453 12.1904 2.63566 13.7263 4.54682 13.7263H12.0903C13.0061 13.7161 13.8777 13.3284 14.5022 12.6536C15.1266 11.9789 15.4494 11.0759 15.3943 10.1175L15.3954 4.84491C15.4494 3.92406 15.1266 3.02111 14.5022 2.34635C13.8777 1.6716 13.0061 1.28393 12.0903 1.27365ZM13.3534 4.69864C13.5517 4.94827 13.5333 5.30218 13.3235 5.52959L13.2549 5.59379L9.83237 8.35302C9.00112 9.00561 7.85257 9.03824 6.98587 8.44795L6.85145 8.34957L3.40605 5.59545C3.13253 5.3768 3.08677 4.97622 3.30384 4.70071C3.50118 4.45026 3.8478 4.38939 4.11469 4.54467L4.19214 4.59776L7.63318 7.34843C8.01898 7.65132 8.54789 7.67462 8.95066 7.42235L9.04858 7.35354L12.4646 4.59942C12.7373 4.37963 13.1352 4.42405 13.3534 4.69864Z" fill="#9CA3AF"/>
</svg>
